<?xml version="1.0" standalone="no"?>
<!DOCTYPE svg PUBLIC "-//W3C//DTD SVG 20010904//EN"
 "http://www.w3.org/TR/2001/REC-SVG-20010904/DTD/svg10.dtd">
<svg version="1.0" xmlns="http://www.w3.org/2000/svg"
 width="512.000000pt" height="512.000000pt" viewBox="0 0 512.000000 512.000000"
 preserveAspectRatio="xMidYMid meet">
<metadata>
Created by potrace 1.11, written by Peter Selinger 2001-2013
</metadata>
<g transform="translate(0.000000,512.000000) scale(0.100000,-0.100000)"
fill="#000000" stroke="none">
<path d="M390 5104 c-30 -8 -80 -26 -110 -41 -72 -35 -188 -151 -223 -223 -61
-126 -57 23 -57 -2280 0 -2303 -4 -2154 57 -2280 35 -72 151 -188 223 -223
126 -61 -23 -57 2280 -57 2303 0 2154 -4 2280 57 72 35 188 151 223 223 61
126 57 -23 57 2280 0 2303 4 2154 -57 2280 -35 72 -151 188 -223 223 -127 61
23 57 -2285 56 -1816 0 -2118 -2 -2165 -15z m1405 -1674 c102 -12 238 -43 301
-70 l42 -18 -31 -85 -30 -85 -71 25 c-130 44 -205 57 -331 58 -148 0 -207 -18
-276 -85 -56 -54 -73 -104 -67 -201 7 -136 84 -206 333 -303 311 -122 417
-194 479 -326 29 -61 31 -72 31 -185 0 -114 -1 -123 -32 -188 -60 -127 -161
-208 -323 -259 -69 -21 -93 -23 -280 -23 -177 1 -217 4 -293 23 -48 12 -101
29 -117 37 -30 15 -30 16 -30 105 0 100 1 101 66 74 66 -27 245 -63 349 -70
304 -20 479 99 462 311 -11 148 -81 205 -397 328 -172 67 -254 113 -327 184
-91 88 -129 201 -121 359 7 133 49 210 156 291 124 94 290 127 507 103z m1655
-14 c152 -38 252 -97 351 -204 113 -122 184 -288 208 -487 29 -241 -1 -457
-91 -645 -44 -91 -62 -116 -138 -192 -71 -71 -102 -95 -171 -127 -117 -56
-184 -72 -332 -78 -378 -16 -634 134 -758 443 -106 265 -99 659 16 903 69 145
145 230 273 307 62 38 185 80 272 94 74 12 302 4 370 -14z"/>
<path d="M3095 3250 c-232 -50 -378 -216 -425 -485 -19 -109 -14 -342 9 -454
50 -236 187 -391 391 -442 80 -20 270 -18 345 5 182 55 300 179 354 374 63
229 46 549 -39 727 -35 74 -124 174 -185 210 -85 51 -152 67 -285 71 -69 1
-143 -1 -165 -6z"/>
</g>
</svg>
